PathFileType	4	(X/Y/Z)	OpenSim_Sub08_EMGStiffKnee_Accel.trc
DataRate	CameraRate	NumFrames	NumMarkers	Units	OrigDataRate	OrigDataStartFrame	OrigNumFrames
100	100	24	8	m	100	5514	6301
Frame#	Time	torso_imu_offset_imu	pelvis_imu_offset_imu	tibia_r_imu_offset_imu	femur_r_imu_offset_imu	tibia_l_imu_offset_imu	femur_l_imu_offset_imu	toes_r_imu_offset_imu	toes_l_imu_offset_imu
				X1	Y1	Z1	X2	Y2	Z2	X3	Y3	Z3	X4	Y4	Z4	X5	Y5	Z5	X6	Y6	Z6	X7	Y7	Z7	X8		Y8	Z8	

5514	55.13000000	9.52176140	0.96773054	3.76587182	7.96134397	-0.82677119	4.86041064	10.79922322	1.06176919	1.08934260	10.04426516	0.73059975	2.06176472	9.63179338	-1.01932945	0.00691990	9.40994208	0.38108848	-1.57208894	6.05272602	-1.87361482	9.46407516	5.95817126	0.91704418	10.55473160
5515	55.14000000	9.42670111	0.88947716	3.95853338	7.85829781	-1.26498241	4.87158720	10.78089252	1.35776680	1.00914975	10.01849830	0.93420114	2.24212224	9.64457171	-0.46785872	0.07182382	9.45692112	0.74689076	-1.79561410	6.72439874	-2.27278893	9.37497882	6.28057998	1.02315645	10.26466007
5516	55.15000000	9.36165765	0.74993908	4.14081889	7.80663585	-1.59872751	4.86521128	10.80535352	1.69668240	0.84981902	10.05994394	1.10693721	2.35514467	9.55022545	-0.74782498	-0.25888081	9.48290933	0.83136064	-1.56017111	7.41831043	-2.29421266	9.34628317	6.20307957	0.78397675	10.38920331
5517	55.16000000	9.39277080	0.69003994	4.32485348	7.78802423	-1.78425169	4.86799060	10.77324148	1.74458681	0.56805236	10.03262490	1.13190616	2.57528891	9.63835720	-1.46348601	-0.48444671	9.48772094	0.60979180	-1.45462742	7.30129645	-1.89558252	9.05586255	6.50931622	0.90227660	10.24082069
5518	55.17000000	9.34698403	0.62684225	4.42673926	7.82735191	-1.76606791	4.90415600	10.80177756	1.52095381	0.30469011	9.76264469	0.91927752	2.60864076	9.42458164	-1.63818786	-0.86359247	9.56868952	0.55702797	-1.50830532	7.15061031	-1.35519446	8.75103270	5.55377974	1.41937064	10.89071142
5519	55.18000000	9.29011928	0.63965009	4.49393875	7.88228347	-1.62734865	4.87555399	10.86488518	1.07653640	0.36702690	9.69063273	0.84881230	2.47284381	9.47677526	-1.57775965	-0.87730550	9.60966184	0.45358599	-1.68809796	7.47441616	-1.31605644	8.67136777	5.91255854	1.41996233	10.47644835
5520	55.19000000	9.20529042	0.65194745	4.53649163	7.95091510	-1.40270125	4.94007688	10.71864850	0.72469377	0.41759855	9.37237343	0.59667885	2.28783202	9.43073667	-1.32196045	-0.92400176	9.74046574	0.53180750	-1.93466048	7.86089024	-0.80241892	8.73924300	5.89490245	1.50524451	10.56711537
5521	55.20000000	9.13024605	0.67812284	4.56709239	7.97223000	-1.19351695	4.94094296	10.43217156	0.56919249	0.41903853	9.13971291	0.24382639	2.15008357	9.92193525	-1.15333933	-0.89051384	9.70729673	0.58192045	-2.08018542	7.66481551	-0.13323158	8.63422494	6.21468761	1.28673769	10.34688388
5522	55.21000000	9.11259381	0.71172728	4.64658518	7.99237678	-1.07029569	4.95198928	10.35141736	0.61481804	0.41104742	9.12178820	0.00731620	2.12343346	9.93051828	-1.35525714	-0.82568347	9.57759694	0.64323978	-2.08302639	7.36918494	0.05356837	8.60062093	6.07616949	1.26445349	10.53278716
5523	55.22000000	8.97989433	0.71684624	4.63053561	7.99681641	-1.11981827	4.93328756	10.46198922	0.72174934	0.21943284	9.24767109	-0.22803770	2.12579535	9.55112183	-1.69478189	-0.53462444	9.32291036	0.80345897	-2.01151680	7.17199600	-0.38111372	8.57893133	5.95408985	1.17249194	10.48214415
5524	55.23000000	8.88143890	0.74468710	4.63684895	8.02482741	-1.07186063	4.91928219	10.55305744	1.02886538	0.12010503	9.23741250	-0.47396973	2.06181520	9.18475070	-1.30865528	-0.62208352	9.32142408	1.19571985	-1.90920678	6.95499993	-0.75537233	8.76140463	6.24904754	1.20232649	10.24763293
5525	55.24000000	8.83573187	0.72189952	4.65702044	8.02905371	-1.14532237	4.66114243	10.45257747	1.42872288	0.10347594	9.16771090	-0.82219165	1.97168527	9.04011717	-1.30038081	-0.55133490	9.18301261	1.33749643	-1.77516189	7.02586600	-0.78212294	9.12139115	6.14644451	1.30148625	10.27626618
5526	55.25000000	8.73104898	0.74058879	4.57186093	8.12346185	-1.22048480	4.36395347	10.36998607	1.77709126	0.18496046	9.20589284	-1.09252550	2.02436774	9.12468331	-1.42034631	-0.78390605	8.90817211	1.25529277	-1.59960019	6.64497094	-1.11859099	9.19540804	6.56146160	1.31384302	9.93418534
5527	55.26000000	8.68546333	0.73351593	4.43394907	8.28131887	-1.11585317	4.21193442	10.51426359	1.85404818	0.29686958	9.39567597	-1.10411393	2.11157837	8.97820947	-1.51174543	-0.74442693	8.66667616	0.97307926	-1.47918300	6.17820109	-1.46397555	8.98323703	5.85231333	1.13707519	10.45333562
5528	55.27000000	8.84084873	0.72088614	4.64263853	8.44125783	-0.94528375	4.18102056	10.69888202	1.87244026	0.33888003	9.54972871	-1.04905925	2.27797654	8.83255892	-1.21862568	-0.95184508	8.61359851	0.55353239	-1.38728340	6.04169628	-1.33913310	9.20975825	6.22959244	1.25708167	10.13479534
5529	55.28000000	8.92221349	0.76105867	4.64817466	8.59769739	-0.79133615	4.11256454	10.62605069	1.63644941	0.36329088	9.43807313	-1.03819255	2.32847801	8.80899363	-1.58297852	-0.76134372	8.81283916	0.27068508	-1.36957035	6.19326313	-1.47337775	9.46059166	6.12448555	1.11157878	10.25491465
5530	55.29000000	8.96111333	0.68791100	4.76842890	8.65392550	-0.76471186	4.07136571	10.41376330	1.35042295	0.35102026	9.32305534	-1.04164806	2.36794583	9.03409976	-2.14753850	-0.43576042	9.06425898	0.14124149	-1.28355747	5.91989785	-2.00151972	9.39390918	6.27527568	0.86198192	10.15814931
5531	55.30000000	9.00962833	0.66364957	5.02452497	8.63801528	-0.75206593	3.93189878	10.25555913	1.11492400	0.27802150	9.24193094	-1.01561134	2.40877926	9.36683100	-1.95099992	-0.67408887	9.27325118	-0.11027702	-1.12763660	5.41577656	-2.37492202	9.22103234	5.82405904	0.88812062	10.56933703
5532	55.31000000	9.05035947	0.58410355	5.07069905	8.55481543	-0.83363184	3.92365582	10.23077537	0.99266100	0.40288484	9.16885365	-0.90165431	2.37332661	9.37926141	-1.64892055	-0.39612919	9.31407152	-0.26731856	-1.35274918	5.43780305	-2.48270274	9.15035254	5.99374484	0.88142862	10.58006755
5533	55.32000000	9.02302239	0.55206687	5.08155305	8.46883281	-0.93327057	3.83930475	10.21124231	0.98017808	0.53153498	9.07225745	-1.00562815	2.26298966	9.16598950	-1.23633087	-0.53712042	9.13468113	-0.15344441	-1.69202436	5.69793900	-2.41089181	9.18951536	6.31205335	0.81339661	10.29287770
5534	55.33000000	8.85338750	0.47092551	5.11324313	8.46317660	-1.02985955	3.80801804	10.13251357	1.08903154	0.61992195	9.02956186	-1.17857088	2.20539523	9.12793526	-0.89886760	-0.47274942	8.96230637	0.28843418	-1.94366144	5.88379727	-2.25879497	9.03816099	6.20841261	0.73048078	10.31865711
5535	55.34000000	8.69624286	0.34901828	5.16629824	8.36067814	-1.06196402	3.79623187	10.07395191	1.16406725	0.69358339	8.91273450	-1.40099446	2.25747096	9.29222008	-0.52394384	-0.63981608	8.78147833	0.54021822	-1.98573518	6.42419751	-1.92079721	8.88925348	6.17951953	0.82696509	10.31536740
5536	55.35000000	8.71990788	0.28254672	5.14169163	8.40290269	-1.07977918	3.74132842	10.03868832	1.00592292	0.79510984	8.81061842	-1.66107318	2.38928357	9.16751185	-0.59564287	-0.87016611	8.64177163	0.91471044	-1.86237542	6.41673078	-1.73730204	8.49507993	5.66791021	1.00196237	10.78586999
5537	55.36000000	8.68179176	0.37383399	5.16943673	8.30168815	-1.03517203	3.68084778	9.95455510	0.76649076	0.79451123	8.78165338	-2.02913924	2.55359440	8.98595138	-0.97002485	-0.91097410	8.76730446	1.17134185	-1.65624537	6.41346921	-1.36010604	8.12155754	5.84962309	1.19632423	10.53318576
